<?xml version="1.0" encoding="UTF-8"?>
<svg version="1.1" xmlns="http://www.w3.org/2000/svg" width="323" height="323">
<path d="M0 0 C-0.40336651 2.82356557 -0.89513456 4.82748897 -2.38671875 7.28125 C-4.12915579 10.21765722 -5.30551191 13.11571297 -6.5 16.3125 C-7.14775391 18.03533203 -7.14775391 18.03533203 -7.80859375 19.79296875 C-8.20175781 20.85128906 -8.59492187 21.90960938 -9 23 C-9.52073794 24.37503613 -10.04155351 25.75004287 -10.5625 27.125 C-10.77608154 27.70588379 -10.98966309 28.28676758 -11.2097168 28.88525391 C-11.75105106 30.33382895 -12.31070606 31.77565181 -12.88574219 33.21118164 C-15.78957436 40.70158323 -17.60607102 48.31829299 -19.23754883 56.15991211 C-19.68522894 58.30163512 -20.15133035 60.4387671 -20.61914062 62.57617188 C-23.58866689 76.43189671 -24.17019648 90.10883791 -24.13037109 104.24072266 C-24.12500525 106.49778962 -24.13035808 108.7546577 -24.13671875 111.01171875 C-24.14501663 123.4311045 -24.12642983 135.7384554 -20.625 147.75 C-20.39949463 148.55856445 -20.17398926 149.36712891 -19.94165039 150.20019531 C-19.50020484 151.77449952 -19.05302209 153.3472104 -18.59912109 154.91796875 C-18.09521582 156.66911144 -17.61686313 158.42757846 -17.14453125 160.1875 C-15.72198424 165.3432505 -13.77645996 169.43227555 -11 174 C-10.71382813 174.76054687 -10.42765625 175.52109375 -10.1328125 176.3046875 C-5.19941741 188.04276548 4.23735111 197.50552521 15 204 C18.5877885 205.32341725 18.5877885 205.32341725 22.375 206.25 C23.62023437 206.58515625 24.86546875 206.9203125 26.1484375 207.265625 C33.64426821 208.69485033 39.7257199 207.86584654 47 206 C47.77472656 205.80921875 48.54945313 205.6184375 49.34765625 205.421875 C51.23382399 204.95615457 53.11722494 204.47925183 55 204 C55 204.99 55 205.98 55 207 C46.46056414 211.36507143 38.00557215 215.66878522 29 219 C28.07445312 219.38671875 27.14890625 219.7734375 26.1953125 220.171875 C2.89424955 229.40114688 -22.95621599 232.65029491 -47 225 C-47.79664063 224.76152344 -48.59328125 224.52304687 -49.4140625 224.27734375 C-58.00517374 221.41934459 -67.01326627 215.84644745 -73 209 C-73.71484375 206.7890625 -73.71484375 206.7890625 -74 205 C-74.66 205 -75.32 205 -76 205 C-90.47878424 180.60170825 -91.24362315 152.48872891 -84.31591797 125.31689453 C-79.61015324 108.22626093 -72.83864134 91.60842923 -63.5078125 76.5078125 C-61.93071987 73.95970899 -61.93071987 73.95970899 -60.51171875 71.01171875 C-58.04936978 66.10610878 -54.98875013 61.59710295 -52 57 C-51.4328125 56.10539062 -50.865625 55.21078125 -50.28125 54.2890625 C-49.7553125 53.47179687 -49.229375 52.65453125 -48.6875 51.8125 C-48.21699219 51.07644531 -47.74648438 50.34039062 -47.26171875 49.58203125 C-46.63716797 48.79892578 -46.63716797 48.79892578 -46 48 C-45.34 48 -44.68 48 -44 48 C-43.75378906 47.28199219 -43.50757813 46.56398437 -43.25390625 45.82421875 C-41.85304831 42.66901535 -40.15239159 40.45708837 -37.9375 37.8125 C-37.13699219 36.85601562 -36.33648437 35.89953125 -35.51171875 34.9140625 C-32.40007961 31.30398039 -29.22681052 27.75636596 -26.01171875 24.23828125 C-24.29393682 22.32704039 -22.66536043 20.38210088 -21.0625 18.375 C-20.381875 17.59125 -19.70125 16.8075 -19 16 C-18.34 16 -17.68 16 -17 16 C-16.62875 15.071875 -16.62875 15.071875 -16.25 14.125 C-14.76259631 11.59641373 -13.56321991 11.28160996 -11 10 C-10.7009375 9.38640625 -10.401875 8.7728125 -10.09375 8.140625 C-8.86534754 5.73646591 -7.55877063 4.47727367 -5.5 2.75 C-4.8915625 2.22921875 -4.283125 1.7084375 -3.65625 1.171875 C-2 0 -2 0 0 0 Z " fill="#408732" transform="translate(110,76)"/>
<path d="M0 0 C11.2652196 9.47170062 16.58967171 20.55726951 20.578125 34.41796875 C20.75770752 34.99732178 20.93729004 35.5766748 21.12231445 36.17358398 C24.5208756 52.90790247 22.68779738 74.27156832 17.578125 90.41796875 C17.17470796 91.80660379 16.77370807 93.19594309 16.375 94.5859375 C15.2076943 98.56661777 13.91469338 102.49076783 12.578125 106.41796875 C12.22234375 107.48015625 11.8665625 108.54234375 11.5 109.63671875 C5.5104091 126.34008493 -3.9825456 144.04778076 -14.421875 158.41796875 C-15.081875 158.41796875 -15.741875 158.41796875 -16.421875 158.41796875 C-16.50179687 158.96066406 -16.58171875 159.50335938 -16.6640625 160.0625 C-17.69768529 163.27525536 -19.4884724 165.43652301 -21.546875 168.10546875 C-22.1493103 168.88905762 -22.1493103 168.88905762 -22.76391602 169.68847656 C-23.97966861 171.26772642 -25.20073782 172.84287876 -26.421875 174.41796875 C-27.10894531 175.33707031 -27.79601562 176.25617188 -28.50390625 177.203125 C-29.11621094 178.01652344 -29.72851562 178.82992187 -30.359375 179.66796875 C-30.90464844 180.395 -31.44992188 181.12203125 -32.01171875 181.87109375 C-32.47707031 182.3815625 -32.94242187 182.89203125 -33.421875 183.41796875 C-34.081875 183.41796875 -34.741875 183.41796875 -35.421875 183.41796875 C-35.64875 184.13984375 -35.875625 184.86171875 -36.109375 185.60546875 C-37.70911352 189.03347986 -39.68058439 190.79586469 -42.421875 193.41796875 C-43.76564387 194.90862733 -45.09818025 196.40945624 -46.421875 197.91796875 C-51.96786971 204.18690504 -57.8472288 210.21250231 -64.421875 215.41796875 C-65.081875 215.41796875 -65.741875 215.41796875 -66.421875 215.41796875 C-66.62296875 215.97226563 -66.8240625 216.5265625 -67.03125 217.09765625 C-68.96912864 220.33108296 -71.71263307 222.300259 -74.671875 224.54296875 C-75.29231689 225.02088867 -75.91275879 225.49880859 -76.55200195 225.99121094 C-102.3456246 245.72588528 -102.3456246 245.72588528 -110.421875 248.41796875 C-110.05783671 243.87819716 -106.76326473 241.70182995 -103.546875 238.91796875 C-93.11608315 229.59161368 -83.57741414 219.51467302 -76.421875 207.41796875 C-75.93847656 206.61617187 -75.45507812 205.814375 -74.95703125 204.98828125 C-69.33256958 195.64898945 -64.20481264 186.21108766 -59.421875 176.41796875 C-58.97585937 175.50917969 -58.52984375 174.60039062 -58.0703125 173.6640625 C-52.92294375 162.78817045 -48.83030641 151.25366054 -46.16015625 139.51953125 C-45.72039856 137.67208361 -45.25349921 135.83025877 -44.73046875 134.00463867 C-42.8735965 127.52224707 -41.61698696 121.17039695 -40.796875 114.48046875 C-40.67352783 113.48611816 -40.55018066 112.49176758 -40.4230957 111.46728516 C-36.69402461 80.07115415 -37.36977014 45.76950603 -56.921875 19.39453125 C-64.73039876 9.67631418 -75.66081947 4.00436113 -88.046875 2.48046875 C-93.69008306 2.1752075 -98.94032532 3.1713858 -104.421875 4.41796875 C-106.08782791 4.75485119 -107.75429514 5.08923437 -109.421875 5.41796875 C-109.751875 4.75796875 -110.081875 4.09796875 -110.421875 3.41796875 C-107.25270482 -2.92037161 -90.97197218 -5.59865762 -84.484375 -7.77758789 C-76.77412044 -10.29327209 -69.51557226 -11.89701781 -61.421875 -12.58203125 C-59.50181641 -12.83919922 -59.50181641 -12.83919922 -57.54296875 -13.1015625 C-37.28775928 -15.65928103 -16.39630822 -12.87119761 0 0 Z " fill="#3A5A65" transform="translate(284.421875,28.58203125)"/>
<path d="M0 0 C1.41104004 -0.00241699 1.41104004 -0.00241699 2.85058594 -0.00488281 C9.10228924 0.10228924 9.10228924 0.10228924 11.375 2.375 C10.66214844 3.43976562 9.94929688 4.50453125 9.21484375 5.6015625 C0.17724443 19.23701676 -6.80102301 33.18882157 -12.83154297 48.38671875 C-13.55148721 50.19078827 -14.29216639 51.98654874 -15.03515625 53.78125 C-17.93706973 60.95172734 -19.97156073 68.1350182 -21.73046875 75.6484375 C-22.59809578 79.26291866 -23.57921361 82.80919089 -24.625 86.375 C-24.955 86.375 -25.285 86.375 -25.625 86.375 C-25.65062964 79.9378343 -25.66798257 73.50068205 -25.67993164 67.06347656 C-25.68491997 64.87955229 -25.69171302 62.69563129 -25.70043945 60.51171875 C-25.83154621 26.82499398 -25.83154621 26.82499398 -23.08227539 23.52099609 C-22.60137451 23.14281738 -22.12047363 22.76463867 -21.625 22.375 C-22.20386963 22.70709473 -22.78273926 23.03918945 -23.37915039 23.38134766 C-30.71656836 26.62771043 -40.72391058 21.51341434 -47.6875 19 C-48.81994141 18.60039063 -49.95238281 18.20078125 -51.11914062 17.7890625 C-56.97861801 15.71418641 -62.81337003 13.58014723 -68.625 11.375 C-68.625 10.385 -68.625 9.395 -68.625 8.375 C-46.50303165 2.75482426 -22.81804915 0.03705432 0 0 Z " fill="#000000" transform="translate(149.625,37.625)"/>
<path d="M0 0 C2.31 0.66 4.62 1.32 7 2 C7 2.99 7 3.98 7 5 C7.7734375 5.7115625 7.7734375 5.7115625 8.5625 6.4375 C9.036875 6.953125 9.51125 7.46875 10 8 C9.6875 9.6875 9.6875 9.6875 9 12 C8.89738131 14.67321693 8.9553913 17.32347808 9 20 C7.1875 20.625 7.1875 20.625 5 21 C4.01 20.34 3.02 19.68 2 19 C1.8125 16.0625 1.8125 16.0625 2 13 C2 9.79604584 1.25664978 7.90600261 0 5 C0.66 4.34 1.32 3.68 2 3 C1.34 2.01 0.68 1.02 0 0 Z " fill="#428E32" transform="translate(60,280)"/>
<path d="M0 0 C-0.4014027 2.8098189 -0.88496013 4.81175293 -2.375 7.25 C-4.20387953 10.3450269 -5.42963819 13.44686975 -6.6875 16.8125 C-7.12449219 17.97394531 -7.56148438 19.13539062 -8.01171875 20.33203125 C-8.33785156 21.21246094 -8.66398437 22.09289062 -9 23 C-9.99 22.34 -10.98 21.68 -12 21 C-12.25 18.4375 -12.25 18.4375 -12 16 C-11.67 15.67 -11.34 15.34 -11 15 C-11.226875 14.2575 -11.45375 13.515 -11.6875 12.75 C-12 10 -12 10 -10.4375 7.5 C-3.125 0 -3.125 0 0 0 Z " fill="#3C8131" transform="translate(110,76)"/>
<path d="M0 0 C0 0.99 0 1.98 0 3 C-2.28929053 4.17154293 -4.58118362 5.33738074 -6.875 6.5 C-7.52597656 6.83386719 -8.17695313 7.16773438 -8.84765625 7.51171875 C-13.7734375 10 -13.7734375 10 -16 10 C-16 8.02 -16 6.04 -16 4 C-13.70922959 3.33011414 -11.41748541 2.66396838 -9.125 2 C-8.47402344 1.80921875 -7.82304687 1.6184375 -7.15234375 1.421875 C-2.2265625 0 -2.2265625 0 0 0 Z " fill="#347924" transform="translate(165,280)"/>
<path d="M0 0 C2.65262179 1.32631089 3.21099749 2.85343108 4.625 5.4375 C5.07101563 6.24058594 5.51703125 7.04367187 5.9765625 7.87109375 C7 10 7 10 7 12 C6.01 12.495 6.01 12.495 5 13 C4.34 14.32 3.68 15.64 3 17 C1.68 13.7 0.36 10.4 -1 7 C-1.66 7.66 -2.32 8.32 -3 9 C-3.99 7.68 -4.98 6.36 -6 5 C-5.01 5 -4.02 5 -3 5 C-1.28288757 2.55503957 -1.28288757 2.55503957 0 0 Z " fill="#438D33" transform="translate(53,281)"/>
<path d="M0 0 C0.721875 0.309375 1.44375 0.61875 2.1875 0.9375 C4.83966667 1.93942963 7.1817377 2.69532299 10 3 C10.66 2.34 11.32 1.68 12 1 C14.3129482 3.3129482 14.49580975 4.47904875 15.125 7.625 C15.29257812 8.44226563 15.46015625 9.25953125 15.6328125 10.1015625 C15.81457031 11.04128906 15.81457031 11.04128906 16 12 C9.02172089 9.0073388 4.55608682 6.1147481 0 0 Z " fill="#357728" transform="translate(40,286)"/>
<path d="M0 0 C0.66 1.32 1.32 2.64 2 4 C-1.84919283 8.33034194 -5.72289646 10.6560756 -11 13 C-10.53730015 8.70772058 -8.09840542 6.97077935 -4.9375 4.25 C-4.01839844 3.45078125 -3.09929687 2.6515625 -2.15234375 1.828125 C-1.44207031 1.22484375 -0.73179687 0.6215625 0 0 Z " fill="#2E4A54" transform="translate(185,264)"/>
<path d="M0 0 C0.33 0 0.66 0 1 0 C1 3.3 1 6.6 1 10 C1.66 10 2.32 10 3 10 C3 8.02 3 6.04 3 4 C3.33 4 3.66 4 4 4 C4.125 10.75 4.125 10.75 3 13 C4.65 13 6.3 13 8 13 C8 13.33 8 13.66 8 14 C6.3954444 13.85851011 4.79136233 13.71164314 3.1875 13.5625 C2.29417969 13.48128906 1.40085937 13.40007812 0.48046875 13.31640625 C-2 13 -2 13 -5 12 C-5 11.34 -5 10.68 -5 10 C-4.01 9.67 -3.02 9.34 -2 9 C-1.7834375 7.0509375 -1.7834375 7.0509375 -1.5625 5.0625 C-1.125 1.125 -1.125 1.125 0 0 Z " fill="#346E26" transform="translate(71,290)"/>
<path d="M0 0 C-0.33 1.32 -0.66 2.64 -1 4 C0.65 4 2.3 4 4 4 C4 4.33 4 4.66 4 5 C2.89591797 5.19916016 2.89591797 5.19916016 1.76953125 5.40234375 C0.79371094 5.57894531 -0.18210938 5.75554688 -1.1875 5.9375 C-2.15042969 6.11152344 -3.11335937 6.28554688 -4.10546875 6.46484375 C-6.74239972 6.9523735 -9.3719905 7.46671105 -12 8 C-12.33 7.34 -12.66 6.68 -13 6 C-11.59719304 3.19438607 -9.9490995 2.99319493 -7.0625 1.875 C-6.16660156 1.52179687 -5.27070313 1.16859375 -4.34765625 0.8046875 C-2 0 -2 0 0 0 Z " fill="#294A51" transform="translate(187,26)"/>
<path d="M0 0 C1.9375 1.0625 1.9375 1.0625 4 3 C4.75 6.6875 4.75 6.6875 5 10 C0.545 9.01 0.545 9.01 -4 8 C-3.34 6.02 -2.68 4.04 -2 2 C-1.34 2 -0.68 2 0 2 C0 1.34 0 0.68 0 0 Z " fill="#397628" transform="translate(60,291)"/>
<path d="M0 0 C0.99 0 1.98 0 3 0 C2.50769231 6.52307692 2.50769231 6.52307692 -0.0625 8.9375 C-0.701875 9.288125 -1.34125 9.63875 -2 10 C-1.125 2.25 -1.125 2.25 0 0 Z " fill="#326F2B" transform="translate(27,198)"/>
<path d="M0 0 C-0.55728913 3.34373475 -1.35173889 6.03312999 -3 9 C-3.66 9 -4.32 9 -5 9 C-5.36666667 3.5 -5.36666667 3.5 -3.625 1.125 C-2 0 -2 0 0 0 Z " fill="#35722C" transform="translate(110,76)"/>
<path d="M0 0 C2.97 0.33 5.94 0.66 9 1 C5.71299843 2.64350079 3.52069985 3.41321669 0 4 C-0.33 3.34 -0.66 2.68 -1 2 C-0.67 1.34 -0.34 0.68 0 0 Z " fill="#22373D" transform="translate(175,30)"/>
<path d="M0 0 C0.66 0 1.32 0 2 0 C3.38226016 2.76452033 3.09525387 5.0461363 3.0625 8.125 C3.05347656 9.22070312 3.04445313 10.31640625 3.03515625 11.4453125 C3.02355469 12.28835937 3.01195312 13.13140625 3 14 C2.67 14 2.34 14 2 14 C1.67 11.03 1.34 8.06 1 5 C0.34 5 -0.32 5 -1 5 C-0.67 3.35 -0.34 1.7 0 0 Z " fill="#418E35" transform="translate(32,183)"/>
<path d="M0 0 C0.33 0 0.66 0 1 0 C1.33 4.62 1.66 9.24 2 14 C1.01 13.67 0.02 13.34 -1 13 C-0.67 8.71 -0.34 4.42 0 0 Z " fill="#3A7B2F" transform="translate(23,234)"/>
</svg>
