<?xml version="1.0" encoding="UTF-8"?>
<svg version="1.1" xmlns="http://www.w3.org/2000/svg" width="1280" height="720">
<path d="M0 0 C-1.54773667 5.02419133 -3.62083504 9.67456797 -5.8125 14.4375 C-11.72440887 27.55104313 -15.78135314 40.99667293 -19 55 C-19.17950195 55.76393066 -19.35900391 56.52786133 -19.54394531 57.31494141 C-20.10638656 59.72772572 -20.64962129 62.14413059 -21.1875 64.5625 C-21.35451416 65.28083008 -21.52152832 65.99916016 -21.69360352 66.73925781 C-24.34199497 79.03390057 -24.16585723 91.79364948 -24.13037109 104.31616211 C-24.12499556 106.56435863 -24.13036586 108.81235621 -24.13671875 111.06054688 C-24.14502994 123.46373182 -24.12180661 135.75431521 -20.625 147.75 C-20.39949463 148.55856445 -20.17398926 149.36712891 -19.94165039 150.20019531 C-19.50020484 151.77449952 -19.05302209 153.3472104 -18.59912109 154.91796875 C-18.09521582 156.66911144 -17.61686313 158.42757846 -17.14453125 160.1875 C-15.72198424 165.3432505 -13.77645996 169.43227555 -11 174 C-10.71382813 174.76054687 -10.42765625 175.52109375 -10.1328125 176.3046875 C-5.19941741 188.04276548 4.23735111 197.50552521 15 204 C18.5877885 205.32341725 18.5877885 205.32341725 22.375 206.25 C23.62023437 206.58515625 24.86546875 206.9203125 26.1484375 207.265625 C33.64426821 208.69485033 39.7257199 207.86584654 47 206 C47.77472656 205.80921875 48.54945313 205.6184375 49.34765625 205.421875 C51.23382399 204.95615457 53.11722494 204.47925183 55 204 C54 207 54 207 52.22851562 208.16333008 C51.46216797 208.52837646 50.69582031 208.89342285 49.90625 209.26953125 C49.05015137 209.68050049 48.19405273 210.09146973 47.31201172 210.51489258 C46.38404785 210.94310303 45.45608398 211.37131348 44.5 211.8125 C43.5423877 212.25682373 42.58477539 212.70114746 41.59814453 213.15893555 C12.5345486 226.44287068 -20.97547069 234.22108239 -52 223 C-56.73069849 220.90571551 -60.89792357 218.14074556 -65 215 C-65.83402344 214.36320313 -66.66804688 213.72640625 -67.52734375 213.0703125 C-72.82346384 208.73289253 -72.82346384 208.73289253 -73.515625 205.859375 C-73.75539062 204.93898438 -73.75539062 204.93898438 -74 204 C-74.99 203.67 -75.98 203.34 -77 203 C-78.3166727 200.75960369 -79.46033255 198.59180956 -80.5625 196.25 C-80.86607422 195.62867188 -81.16964844 195.00734375 -81.48242188 194.3671875 C-93.72306232 169.08586474 -88.8483343 137.16181253 -80.0234375 111.4765625 C-75.63970711 99.31203522 -70.30987574 87.51598248 -63.5078125 76.5078125 C-61.93071987 73.95970899 -61.93071987 73.95970899 -60.51171875 71.01171875 C-58.04936978 66.10610878 -54.98875013 61.59710295 -52 57 C-51.4328125 56.10539062 -50.865625 55.21078125 -50.28125 54.2890625 C-49.7553125 53.47179687 -49.229375 52.65453125 -48.6875 51.8125 C-48.21699219 51.07644531 -47.74648437 50.34039062 -47.26171875 49.58203125 C-46.63716797 48.79892578 -46.63716797 48.79892578 -46 48 C-45.34 48 -44.68 48 -44 48 C-43.75378906 47.28199219 -43.50757813 46.56398438 -43.25390625 45.82421875 C-41.85304831 42.66901535 -40.15239159 40.45708837 -37.9375 37.8125 C-37.13699219 36.85601562 -36.33648437 35.89953125 -35.51171875 34.9140625 C-32.40007961 31.30398039 -29.22681052 27.75636596 -26.01171875 24.23828125 C-24.29393682 22.32704039 -22.66536043 20.38210088 -21.0625 18.375 C-20.381875 17.59125 -19.70125 16.8075 -19 16 C-18.34 16 -17.68 16 -17 16 C-16.62875 15.071875 -16.62875 15.071875 -16.25 14.125 C-14.76259631 11.59641373 -13.56321991 11.28160996 -11 10 C-10.7009375 9.38640625 -10.401875 8.7728125 -10.09375 8.140625 C-8.86534754 5.73646591 -7.55877063 4.47727367 -5.5 2.75 C-4.8915625 2.22921875 -4.283125 1.7084375 -3.65625 1.171875 C-2 0 -2 0 0 0 Z " fill="#408932" transform="translate(233,265)"/>
<path d="M0 0 C11.2652196 9.47170062 16.58967171 20.55726951 20.578125 34.41796875 C20.75770752 34.99659668 20.93729004 35.57522461 21.12231445 36.17138672 C24.43849502 52.51605389 22.8140251 73.72732351 17.578125 89.41796875 C17.18346015 90.76015951 16.79428266 92.10397405 16.41015625 93.44921875 C9.94759239 115.6917837 -0.17384256 138.98497611 -14.421875 157.41796875 C-15.081875 157.41796875 -15.741875 157.41796875 -16.421875 157.41796875 C-16.48375 158.11921875 -16.545625 158.82046875 -16.609375 159.54296875 C-17.49199675 162.66609185 -18.9092365 164.32336322 -20.99780273 166.75 C-23.38143268 169.54186693 -25.60444525 172.45949751 -27.859375 175.35546875 C-35.96109984 185.69098011 -35.96109984 185.69098011 -39.421875 189.41796875 C-40.081875 189.41796875 -40.741875 189.41796875 -41.421875 189.41796875 C-41.64875 190.13984375 -41.875625 190.86171875 -42.109375 191.60546875 C-43.69519375 195.00365178 -45.68310824 196.87027874 -48.421875 199.41796875 C-49.22625 200.24296875 -50.030625 201.06796875 -50.859375 201.91796875 C-53.59313212 204.58504887 -56.48864946 206.97361413 -59.421875 209.41796875 C-60.783125 210.81015625 -60.783125 210.81015625 -62.171875 212.23046875 C-64.421875 214.41796875 -64.421875 214.41796875 -66.421875 214.41796875 C-66.68508545 215.01778564 -66.9482959 215.61760254 -67.21948242 216.2355957 C-68.48526426 218.53302186 -69.63380838 219.69828179 -71.66015625 221.3359375 C-72.30927979 221.86380859 -72.95840332 222.39167969 -73.62719727 222.93554688 C-74.32256592 223.48662109 -75.01793457 224.03769531 -75.734375 224.60546875 C-76.44843506 225.17845703 -77.16249512 225.75144531 -77.89819336 226.34179688 C-83.32606733 230.6536763 -88.8985897 234.67815025 -94.6484375 238.546875 C-96.939701 240.09267108 -99.15285388 241.69335131 -101.359375 243.35546875 C-104.35476418 245.37277167 -106.94865571 246.48612943 -110.421875 247.41796875 C-108.84787088 243.39447892 -106.19899569 241.22710412 -102.984375 238.41796875 C-92.74790818 229.28348416 -83.43208711 219.26899228 -76.421875 207.41796875 C-75.93847656 206.61617187 -75.45507812 205.814375 -74.95703125 204.98828125 C-69.33256958 195.64898945 -64.20481264 186.21108766 -59.421875 176.41796875 C-58.97585938 175.50917969 -58.52984375 174.60039062 -58.0703125 173.6640625 C-52.92294375 162.78817045 -48.83030641 151.25366054 -46.16015625 139.51953125 C-45.72039856 137.67208361 -45.25349921 135.83025877 -44.73046875 134.00463867 C-42.87360016 127.52225985 -41.6169158 121.17039766 -40.796875 114.48046875 C-40.67352783 113.48539307 -40.55018066 112.49031738 -40.4230957 111.46508789 C-38.36839801 94.15635853 -38.17827908 77.72864921 -40.421875 60.41796875 C-40.50920898 59.71833008 -40.59654297 59.01869141 -40.68652344 58.29785156 C-41.76305151 50.25029643 -44.16552195 42.95186229 -47.234375 35.48046875 C-47.5535791 34.69905518 -47.8727832 33.9176416 -48.20166016 33.11254883 C-51.55874676 25.36408821 -56.30739435 19.21888629 -62.421875 13.41796875 C-63.123125 12.59296875 -63.824375 11.76796875 -64.546875 10.91796875 C-72.10304118 4.34738946 -80.98458511 2.23889553 -90.734375 2.23046875 C-91.83555664 2.21209961 -91.83555664 2.21209961 -92.95898438 2.19335938 C-97.8460876 2.18035023 -101.7636468 2.97251352 -106.421875 4.41796875 C-108.859375 4.04296875 -108.859375 4.04296875 -110.421875 3.41796875 C-107.25270482 -2.92037161 -90.97197218 -5.59865762 -84.484375 -7.77758789 C-76.77412044 -10.29327209 -69.51557226 -11.89701781 -61.421875 -12.58203125 C-59.50181641 -12.83919922 -59.50181641 -12.83919922 -57.54296875 -13.1015625 C-37.28775928 -15.65928103 -16.39630822 -12.87119761 0 0 Z " fill="#3B5B67" transform="translate(407.421875,217.58203125)"/>
<path d="M0 0 C0.81082031 0.00064453 1.62164063 0.00128906 2.45703125 0.00195312 C5.92356041 0.02773723 8.55362716 0.08037572 11.875 1.1875 C13.28164926 1.33242123 14.6931133 1.43378931 16.10546875 1.50390625 C17.30913086 1.56674805 17.30913086 1.56674805 18.53710938 1.63085938 C19.37048828 1.67017578 20.20386719 1.70949219 21.0625 1.75 C21.90748047 1.79318359 22.75246094 1.83636719 23.62304688 1.88085938 C25.70684433 1.98681518 27.79090103 2.0876502 29.875 2.1875 C29 7.0625 29 7.0625 27.875 8.1875 C25.22036879 8.64209858 22.55310862 8.88993238 19.875 9.1875 C20.1946875 9.87328125 20.514375 10.5590625 20.84375 11.265625 C23.02609217 17.44892781 23.12241864 24.74482101 20.8828125 30.92578125 C17.33131994 36.89509784 12.52837717 40.32151478 5.875 42.1875 C0.56779673 42.96457115 -4.76880828 43.11440061 -10.125 43.1875 C-11.115 45.4975 -12.105 47.8075 -13.125 50.1875 C-10.54189924 50.35889057 -7.95871944 50.52586421 -5.375 50.6875 C-4.60164307 50.73592041 -3.82828613 50.78434082 -3.03149414 50.83422852 C1.47149712 51.09883584 5.92469551 51.21189611 10.4375 51.125 C16.34282914 51.08449706 21.5684563 51.29495133 26.3125 55.1875 C30.04490193 59.96497447 29.49022577 65.3575034 28.875 71.1875 C26.83399642 77.47712327 22.3907635 80.62111099 16.86328125 83.86328125 C8.98462391 87.35460784 1.77979608 88.67498097 -6.8125 88.5625 C-7.71033203 88.57410156 -8.60816406 88.58570313 -9.53320312 88.59765625 C-17.53931672 88.56246454 -23.07708445 86.70177595 -29.125 81.1875 C-30.88748889 77.66252222 -30.93011158 74.01339024 -30.125 70.1875 C-28.11672601 67.67850354 -25.73209824 66.02977499 -23.125 64.1875 C-22.10563232 63.20725027 -21.09919638 62.21265434 -20.125 61.1875 C-21.3625 60.1665625 -21.3625 60.1665625 -22.625 59.125 C-25.125 56.1875 -25.125 56.1875 -25.875 52.8125 C-24.81339753 47.68142137 -21.97573087 45.51875325 -18.125 42.1875 C-17.11706837 41.19549505 -16.11428936 40.19809713 -15.125 39.1875 C-15.846875 39.0225 -16.56875 38.8575 -17.3125 38.6875 C-21.56056042 36.42186778 -23.47303287 33.69163894 -25.125 29.1875 C-26.05801347 22.76836732 -26.3586827 16.37183696 -23 10.625 C-16.70484063 2.32036885 -10.14572945 -0.15471016 0 0 Z M-9.125 8.1875 C-12.55928163 11.43614479 -13.79741432 14.25830435 -14.15625 19.00390625 C-14.07830853 24.45006646 -13.21733401 28.72065147 -9.9375 33.125 C-6.58242682 35.585387 -4.25705212 36.61756178 -0.125 37.1875 C3.75564207 36.08798475 6.07227744 35.09725224 8.75 32.0625 C11.43659744 25.19675098 11.29132731 19.09129233 8.875 12.1875 C6.79905764 8.51467889 4.94871983 6.93843033 1 5.6875 C-3.21890693 4.86410738 -5.56734028 5.68096702 -9.125 8.1875 Z M-15.875 64.9375 C-17.56906381 67.56621971 -18.65207221 70.08790571 -19.125 73.1875 C-17.30250735 77.33873325 -15.28396533 79.41772752 -11.125 81.1875 C-2.9114381 82.95590034 5.22571895 82.19775883 12.8125 78.5 C16.73468316 75.53835149 17.63196777 73.91102247 18.875 69.1875 C18.07905627 65.93136657 17.23960408 64.55210408 14.875 62.1875 C6.25146484 59.95502501 -9.48076213 57.66641516 -15.875 64.9375 Z " fill="#000000" transform="translate(1046.125,333.8125)"/>
<path d="M0 0 C0.83442627 0.00128906 1.66885254 0.00257813 2.52856445 0.00390625 C9.34684412 0.10917738 15.34548331 1.27732597 21.875 3.3125 C21.875 10.9025 21.875 18.4925 21.875 26.3125 C20.225 26.3125 18.575 26.3125 16.875 26.3125 C16.65585937 25.50425781 16.43671875 24.69601562 16.2109375 23.86328125 C13.62338867 15.02808271 13.62338867 15.02808271 6.875 9.3125 C0.81342423 6.63443312 -4.95056369 7.09140329 -11.125 9.3125 C-15.28536454 12.25942488 -17.08076019 15.34891592 -18.0234375 20.265625 C-18.21032935 24.03221458 -17.11220047 26.15635808 -15.125 29.3125 C-9.71532517 34.31503958 -3.42672723 37.20220282 3.25 40.125 C13.35365734 44.74552144 22.4738208 49.47677006 26.875 60.3125 C27.75955358 67.18173593 27.97267326 74.50834471 24.2578125 80.57421875 C19.15558846 86.98803146 12.9728178 91.63776883 4.875 93.3125 C-7.95185101 94.74419863 -19.17720701 92.98482128 -31.125 88.3125 C-31.15214434 85.6040983 -31.17190846 82.89597279 -31.1875 80.1875 C-31.19587891 79.42695313 -31.20425781 78.66640625 -31.21289062 77.8828125 C-31.23146509 73.5735356 -30.98617265 69.55733526 -30.125 65.3125 C-28.475 65.3125 -26.825 65.3125 -25.125 65.3125 C-24.88265625 66.12074219 -24.6403125 66.92898438 -24.390625 67.76171875 C-21.46116169 77.62605321 -21.46116169 77.62605321 -13.875 84.0625 C-5.78183896 86.76022035 0.0409716 86.77781033 7.875 83.3125 C11.9743504 80.32339034 13.83119619 77.33097866 14.7734375 72.42578125 C14.96320293 68.47720066 13.9520558 65.63676557 11.875 62.3125 C6.80785433 57.5348838 0.80615027 54.65054508 -5.5 51.875 C-24.88232414 42.96631924 -24.88232414 42.96631924 -29.33984375 34.73828125 C-31.39260186 28.39617783 -31.32160001 21.66837823 -29.0859375 15.3984375 C-25.24991376 8.30500812 -19.75302913 4.25307129 -12.4140625 1.17578125 C-8.21283179 0.07308293 -4.32570195 -0.02760444 0 0 Z " fill="#000000" transform="translate(792.125,304.6875)"/>
<path d="M0 0 C11.55 0 23.1 0 35 0 C35 1.65 35 3.3 35 5 C32.03 5.99 29.06 6.98 26 8 C27.35684011 14.72654443 29.2641115 21.02635678 31.58984375 27.4765625 C31.93503555 28.44604828 32.28022736 29.41553406 32.63587952 30.41439819 C33.36207591 32.45066767 34.09082942 34.48602686 34.82202148 36.52050781 C35.93605514 39.62097882 37.04192537 42.72426756 38.14648438 45.828125 C38.85629493 47.81527422 39.5665658 49.8022591 40.27734375 51.7890625 C40.60556625 52.70902008 40.93378876 53.62897766 41.2719574 54.57681274 C43.03032704 59.46176568 44.89763878 64.25257595 47 69 C55.85054976 44.81865008 55.85054976 44.81865008 64.3125 20.5 C64.59552979 19.67282471 64.87855957 18.84564941 65.17016602 17.9934082 C66.34552267 14.45518592 67 11.76729276 67 8 C62.545 6.02 62.545 6.02 58 4 C58 2.68 58 1.36 58 0 C67.57 0 77.14 0 87 0 C87 1.65 87 3.3 87 5 C86.40251953 5.17490967 85.80503906 5.34981934 85.18945312 5.5300293 C81.6832462 6.77732047 78.84069709 7.8542583 76.59375 10.91650391 C75.3918942 13.50745315 74.42822838 16.11100305 73.5 18.8125 C73.11183105 19.8547876 72.72366211 20.8970752 72.32373047 21.97094727 C71.40740608 24.45238673 70.50658394 26.93540549 69.62402344 29.42871094 C67.69233789 34.88415741 65.70684857 40.31986167 63.7265625 45.7578125 C61.43481104 52.05847693 59.14911233 58.36112102 56.88867188 64.6730957 C56.53018158 65.67327728 56.17169128 66.67345886 55.80233765 67.70394897 C55.12985423 69.5820574 54.45885746 71.46069913 53.78970337 73.33999634 C51.66094496 79.28350206 49.38287697 85.15381208 47 91 C45.02 91 43.04 91 41 91 C40.73074707 90.21093262 40.46149414 89.42186523 40.18408203 88.60888672 C33.66220389 69.59554084 26.70051913 50.78147604 19.375 32.0625 C18.97428284 31.03533875 18.57356567 30.00817749 18.16070557 28.94989014 C17.01542376 26.01813064 15.8644647 23.08868005 14.7109375 20.16015625 C14.36556946 19.27724411 14.02020142 18.39433197 13.66436768 17.48466492 C13.34248474 16.67254044 13.02060181 15.86041595 12.68896484 15.02368164 C12.40983246 14.31570938 12.13070007 13.60773712 11.84310913 12.87831116 C10.59502729 10.09778613 9.68414938 8.30008718 6.8359375 7.05078125 C6.02382813 6.80714844 5.21171875 6.56351562 4.375 6.3125 C3.55773437 6.06113281 2.74046875 5.80976563 1.8984375 5.55078125 C1.27195312 5.36902344 0.64546875 5.18726563 0 5 C0 3.35 0 1.7 0 0 Z " fill="#000000" transform="translate(462,307)"/>
<path d="M0 0 C1.41104004 -0.00241699 1.41104004 -0.00241699 2.85058594 -0.00488281 C9.10228924 0.10228924 9.10228924 0.10228924 11.375 2.375 C11.045 3.035 10.715 3.695 10.375 4.375 C9.715 4.375 9.055 4.375 8.375 4.375 C8.00375 5.1484375 8.00375 5.1484375 7.625 5.9375 C5.38234333 10.31068051 2.86922548 14.53616808 0.375 18.76953125 C-3.04003966 24.60578067 -6.28042059 30.33943354 -8.6328125 36.69921875 C-9.63280277 39.39604291 -10.72761396 42.04543121 -11.83178711 44.70092773 C-14.53399732 51.25559647 -16.75138959 57.80574565 -18.61328125 64.65625 C-19.80586066 69.03978514 -21.0856715 73.39414822 -22.375 77.75 C-22.80734448 79.21613026 -23.23964083 80.68227472 -23.671875 82.1484375 C-23.98640625 83.21320313 -24.3009375 84.27796875 -24.625 85.375 C-24.955 85.375 -25.285 85.375 -25.625 85.375 C-25.65063852 79.08024987 -25.66798616 72.78551352 -25.67993164 66.49072266 C-25.68491869 64.35530087 -25.69171072 62.21988242 -25.70043945 60.08447266 C-25.83233453 26.95553334 -25.83233453 26.95553334 -23.20727539 23.51904297 C-21.625 22.375 -21.625 22.375 -19.625 22.375 C-19.295 21.055 -18.965 19.735 -18.625 18.375 C-19.635625 19.2 -20.64625 20.025 -21.6875 20.875 C-25.28448138 23.81131133 -28.05444559 23.79303851 -32.625 23.375 C-35.84877495 22.53285334 -38.94218363 21.41331826 -42.0625 20.25 C-42.92907227 19.93667725 -43.79564453 19.62335449 -44.68847656 19.30053711 C-47.33885844 18.33806321 -49.98256131 17.35904991 -52.625 16.375 C-53.85597412 15.91939697 -53.85597412 15.91939697 -55.11181641 15.45458984 C-59.62449949 13.78284799 -64.12839117 12.08948912 -68.625 10.375 C-68.625 9.715 -68.625 9.055 -68.625 8.375 C-46.50303165 2.75482426 -22.81804915 0.03705432 0 0 Z " fill="#000000" transform="translate(272.625,226.625)"/>
<path d="M0 0 C0.33 2.97 0.66 5.94 1 9 C1.70125 8.071875 2.4025 7.14375 3.125 6.1875 C6.61061739 2.11452719 9.55737743 0.25529346 15.02734375 -0.31640625 C21.8523261 -0.55875958 26.65247225 -0.41752293 32 4 C35.57129744 9.38155208 35.47084411 14.41017478 35.51171875 20.6484375 C35.52966995 21.66096588 35.54762115 22.67349426 35.56611633 23.71670532 C35.62009958 26.93609511 35.65407707 30.15533763 35.6875 33.375 C35.7206836 35.56382252 35.75517422 37.75262564 35.79101562 39.94140625 C35.87581902 45.29413875 35.94421949 50.6468906 36 56 C38.64 56.66 41.28 57.32 44 58 C44 59.32 44 60.64 44 62 C34.43 62 24.86 62 15 62 C15 60.68 15 59.36 15 58 C17.64 57.34 20.28 56.68 23 56 C23.07428762 50.53738362 23.12866714 45.07506284 23.16479492 39.61206055 C23.17985946 37.75458655 23.20031509 35.89714799 23.22631836 34.03979492 C23.26280459 31.36628461 23.2797497 28.69324556 23.29296875 26.01953125 C23.30845261 25.19226028 23.32393646 24.36498932 23.33988953 23.51264954 C23.34123782 18.86883973 23.09266789 15.72634887 20 12 C15.80742757 10.06496657 13.77234912 9.77745873 9.3125 11.0625 C5.15244469 13.4957399 2.84387465 15.42015465 1.31640625 20.08984375 C-1.36454963 31.49777326 0.03047352 43.45224713 1 55 C3.31 55.99 5.62 56.98 8 58 C8 59.32 8 60.64 8 62 C-1.57 62 -11.14 62 -21 62 C-21 60.68 -21 59.36 -21 58 C-18.36 57.34 -15.72 56.68 -13 56 C-13 40.82 -13 25.64 -13 10 C-15.97 10 -18.94 10 -22 10 C-22 8.68 -22 7.36 -22 6 C-20.86820313 5.65066406 -19.73640625 5.30132812 -18.5703125 4.94140625 C-17.08851369 4.48186105 -15.60674438 4.02222069 -14.125 3.5625 C-13.37863281 3.33240234 -12.63226562 3.10230469 -11.86328125 2.86523438 C-2.64470109 0 -2.64470109 0 0 0 Z " fill="#000000" transform="translate(968,334)"/>
<path d="M0 0 C1.21446394 4.2065199 0.87435022 8.11922821 0.5625 12.4375 C0.08607637 19.97104325 -0.21353633 27.44857901 0 35 C0.02835938 36.08539063 0.05671875 37.17078125 0.0859375 38.2890625 C0.3192331 42.85499067 0.5297151 46.14340964 2.75 50.1875 C5.39611662 52.31909394 6.59383469 53 10 53 C15.75628578 51.07339438 15.75628578 51.07339438 20 47 C21.71924173 41.95649571 22.27489191 37.38394155 22.1953125 32.09765625 C22.19106766 31.01380898 22.19106766 31.01380898 22.18673706 29.9080658 C22.17564386 27.62603384 22.15056088 25.34441103 22.125 23.0625 C22.11495611 21.50456301 22.10583274 19.94661979 22.09765625 18.38867188 C22.07574033 14.59229301 22.04128738 10.7962156 22 7 C19.36 6.67 16.72 6.34 14 6 C14.33 4.35 14.66 2.7 15 1 C24.9 0.505 24.9 0.505 35 0 C36.21449499 2.42898999 36.03612873 3.74538597 35.87890625 6.4453125 C35.80615479 7.80233276 35.80615479 7.80233276 35.73193359 9.18676758 C35.67602051 10.15638428 35.62010742 11.12600098 35.5625 12.125 C34.59052865 30.5937327 34.59052865 30.5937327 36 49 C38.64 49.66 41.28 50.32 44 51 C44 52.32 44 53.64 44 55 C43.11957031 55.32613281 42.23914063 55.65226562 41.33203125 55.98828125 C40.17058594 56.42527344 39.00914062 56.86226563 37.8125 57.3125 C36.66394531 57.74175781 35.51539063 58.17101562 34.33203125 58.61328125 C31.02528437 59.88372078 31.02528437 59.88372078 28.32421875 61.66796875 C26 63 26 63 22 63 C21.505 59.04 21.505 59.04 21 55 C20.44570313 55.49371094 19.89140625 55.98742187 19.3203125 56.49609375 C18.59585938 57.13675781 17.87140625 57.77742188 17.125 58.4375 C16.40570312 59.07558594 15.68640625 59.71367187 14.9453125 60.37109375 C9.92795217 64.5723774 3.215726 63.50206661 -3 63 C-6.78649644 61.79739224 -8.54782105 59.74355885 -10.61474609 56.34472656 C-12.20145556 52.51358105 -12.4577001 49.18727454 -12.4765625 45.109375 C-12.49214203 44.36471985 -12.50772156 43.6200647 -12.52377319 42.85284424 C-12.57099645 40.48524051 -12.59890985 38.11792233 -12.625 35.75 C-12.67365589 32.64050432 -12.73013426 29.53119143 -12.7890625 26.421875 C-12.8018927 25.68159058 -12.8147229 24.94130615 -12.82794189 24.17858887 C-12.9385628 18.74179344 -13.33845003 13.40085059 -14 8 C-16.31 7.34 -18.62 6.68 -21 6 C-20.67 4.35 -20.34 2.7 -20 1 C-13.31184516 0.37577221 -6.71884955 -0.12920865 0 0 Z " fill="#000000" transform="translate(636,334)"/>
<path d="M0 0 C0.68964844 -0.01611328 1.37929688 -0.03222656 2.08984375 -0.04882812 C6.55443856 -0.05309638 9.31724424 0.60860562 12.875 3.3125 C17.91081021 8.76796107 18.01943347 12.98334215 17.9375 20.18359375 C17.93371338 20.94293716 17.92992676 21.70228058 17.92602539 22.4846344 C17.90972218 25.72362922 17.88158802 28.9624964 17.85449219 32.20141602 C17.83636959 34.57046929 17.82429909 36.93950189 17.8125 39.30859375 C17.80420166 40.03582138 17.79590332 40.76304901 17.78735352 41.51231384 C17.7694109 45.2463745 17.97457543 48.682885 18.875 52.3125 C23.825 51.8175 23.825 51.8175 28.875 51.3125 C29.37 53.2925 29.37 53.2925 29.875 55.3125 C20.89949231 63.86787754 20.89949231 63.86787754 14.5 64.125 C10.86574373 63.82262075 10.08936142 63.51117644 7.3125 60.9375 C6.47547099 59.40901225 5.6543449 57.8711898 4.875 56.3125 C4.33230469 56.73402344 3.78960938 57.15554688 3.23046875 57.58984375 C2.51503906 58.13769531 1.79960938 58.68554688 1.0625 59.25 C0.35480469 59.79527344 -0.35289062 60.34054687 -1.08203125 60.90234375 C-6.09779002 64.36446405 -12.27902803 64.00752969 -18.125 63.3125 C-22.09740335 61.42087936 -24.52971444 58.371932 -26.125 54.3125 C-26.75842725 48.61165472 -26.91697173 43.20634544 -24.6875 37.875 C-16.51639624 29.70389624 -5.3985525 25.28727215 4.875 20.3125 C4.59288123 18.6858152 4.29897625 17.06117104 4 15.4375 C3.83757813 14.53257812 3.67515625 13.62765625 3.5078125 12.6953125 C3.04455297 10.14744012 3.04455297 10.14744012 0.875 8.3125 C-3.34346009 7.0371516 -6.42984607 7.19808212 -10.46484375 9.078125 C-13.12506256 11.05607593 -14.3760033 13.71966854 -15.7890625 16.66796875 C-16.22992187 17.21066406 -16.67078125 17.75335938 -17.125 18.3125 C-19.7734375 18.55078125 -19.7734375 18.55078125 -22.125 18.3125 C-22.09029968 7.27779968 -22.09029968 7.27779968 -18.5 3.6875 C-12.23984127 1.13706496 -6.6967834 -0.03164831 0 0 Z M-2.4375 31.5 C-3.45360352 32.08104492 -3.45360352 32.08104492 -4.49023438 32.67382812 C-9.47112336 35.61951516 -13.19995429 38.47569314 -15.0625 44.1875 C-15.14483423 48.30421126 -14.14614646 50.74180793 -12.125 54.3125 C-9.96336181 56.59418358 -9.96336181 56.59418358 -7.125 57.3125 C-2.43110015 55.74786672 0.84156958 53.18854999 3.875 49.3125 C6.67947581 42.36669981 6.07931715 34.65656635 5.875 27.3125 C3.17403534 27.3125 -0.08460136 30.1111515 -2.4375 31.5 Z " fill="#000000" transform="translate(581.125,333.6875)"/>
<path d="M0 0 C-0.04543945 1.15556396 -0.04543945 1.15556396 -0.09179688 2.33447266 C-0.72305386 18.89040113 -1.10683146 35.4315345 -1.125 52 C-1.12749756 52.78385071 -1.12999512 53.56770142 -1.13256836 54.37530518 C-1.16033 64.95665564 -0.78890212 75.44776024 0 86 C2.64 86.66 5.28 87.32 8 88 C8 89.32 8 90.64 8 92 C-2.23 92 -12.46 92 -23 92 C-23 90.68 -23 89.36 -23 88 C-22.43410156 87.81824219 -21.86820313 87.63648438 -21.28515625 87.44921875 C-20.55167969 87.19785156 -19.81820312 86.94648438 -19.0625 86.6875 C-18.33160156 86.44386719 -17.60070312 86.20023437 -16.84765625 85.94921875 C-14.64067976 85.08759559 -14.64067976 85.08759559 -14 82 C-13.91028673 79.77663393 -13.88242147 77.55061107 -13.88647461 75.32543945 C-13.88632858 74.652005 -13.88618256 73.97857056 -13.8860321 73.284729 C-13.88672825 71.06088021 -13.89450668 68.83711539 -13.90234375 66.61328125 C-13.90420899 65.07057236 -13.90563239 63.52786289 -13.90663147 61.9851532 C-13.91044831 57.92616132 -13.92027149 53.86720527 -13.93133545 49.80822754 C-13.94156748 45.66577641 -13.94613293 41.5233195 -13.95117188 37.38085938 C-13.96189449 29.25388982 -13.97896093 21.12694937 -14 13 C-16.97 12.67 -19.94 12.34 -23 12 C-23 10.68 -23 9.36 -23 8 C-19.9216662 6.65490586 -16.83659075 5.32602447 -13.75 4 C-12.87730469 3.6184375 -12.00460937 3.236875 -11.10546875 2.84375 C-10.26113281 2.4828125 -9.41679688 2.121875 -8.546875 1.75 C-7.77182617 1.41484375 -6.99677734 1.0796875 -6.19824219 0.734375 C-4 0 -4 0 0 0 Z " fill="#000000" transform="translate(707,304)"/>
<path d="M0 0 C1.65 0 3.3 0 5 0 C5.02725341 1.7290774 5.04650987 3.45828176 5.0625 5.1875 C5.07410156 6.15042969 5.08570313 7.11335938 5.09765625 8.10546875 C5 11 5 11 4 16 C9.61 16 15.22 16 21 16 C20 21 20 21 19 22 C16.46950598 22.07313567 13.96695163 22.09247527 11.4375 22.0625 C10.72658203 22.05798828 10.01566406 22.05347656 9.28320312 22.04882812 C7.52209987 22.03700864 5.76103964 22.01907263 4 22 C3.9501557 26.6773121 3.91407243 31.35446584 3.89013672 36.03198242 C3.88014679 37.61957496 3.8665502 39.20714943 3.84912109 40.79467773 C3.61317544 53.04861914 3.61317544 53.04861914 6 65 C8.00190092 66.9522876 8.00190092 66.9522876 11 67 C14.0659178 66.54216999 17.01894977 65.84430616 20 65 C20.33 66.65 20.66 68.3 21 70 C14.30368395 74.58107485 8.66832729 78.12210398 0.35546875 77.5703125 C-3.21899888 76.70485268 -4.90221346 74.93690115 -7 72 C-8.20887291 69.58225419 -8.12059343 68.06668936 -8.11352539 65.36669922 C-8.11344986 64.40585419 -8.11337433 63.44500916 -8.11329651 62.45504761 C-8.10813522 61.41542877 -8.10297394 60.37580994 -8.09765625 59.3046875 C-8.0962413 58.24210724 -8.09482635 57.17952698 -8.09336853 56.08474731 C-8.08775834 52.68146991 -8.07520409 49.27825762 -8.0625 45.875 C-8.05748631 43.57161553 -8.05292318 41.26823003 -8.04882812 38.96484375 C-8.0377856 33.30987351 -8.02103752 27.65494141 -8 22 C-10.64 22 -13.28 22 -16 22 C-16 20.68 -16 19.36 -16 18 C-14.4609375 16.578125 -14.4609375 16.578125 -12.375 15.25 C-6.67993238 11.27153077 -2.96871696 6.24262912 0 0 Z " fill="#000000" transform="translate(843,320)"/>
<path d="M0 0 C1.65 0 3.3 0 5 0 C5.02725341 1.7290774 5.04650987 3.45828176 5.0625 5.1875 C5.07410156 6.15042969 5.08570313 7.11335938 5.09765625 8.10546875 C5 11 5 11 4 16 C9.61 16 15.22 16 21 16 C20 21 20 21 19 22 C16.46950598 22.07313567 13.96695163 22.09247527 11.4375 22.0625 C10.72658203 22.05798828 10.01566406 22.05347656 9.28320312 22.04882812 C7.52209987 22.03700864 5.76103964 22.01907263 4 22 C3.9501557 26.6773121 3.91407243 31.35446584 3.89013672 36.03198242 C3.88014679 37.61957496 3.8665502 39.20714943 3.84912109 40.79467773 C3.61317544 53.04861914 3.61317544 53.04861914 6 65 C8.00190092 66.9522876 8.00190092 66.9522876 11 67 C14.0659178 66.54216999 17.01894977 65.84430616 20 65 C20.33 66.65 20.66 68.3 21 70 C14.30368395 74.58107485 8.66832729 78.12210398 0.35546875 77.5703125 C-3.21899888 76.70485268 -4.90221346 74.93690115 -7 72 C-8.20887291 69.58225419 -8.12059343 68.06668936 -8.11352539 65.36669922 C-8.11344986 64.40585419 -8.11337433 63.44500916 -8.11329651 62.45504761 C-8.10813522 61.41542877 -8.10297394 60.37580994 -8.09765625 59.3046875 C-8.0962413 58.24210724 -8.09482635 57.17952698 -8.09336853 56.08474731 C-8.08775834 52.68146991 -8.07520409 49.27825762 -8.0625 45.875 C-8.05748631 43.57161553 -8.05292318 41.26823003 -8.04882812 38.96484375 C-8.0377856 33.30987351 -8.02103752 27.65494141 -8 22 C-10.64 22 -13.28 22 -16 22 C-16 20.68 -16 19.36 -16 18 C-14.4609375 16.578125 -14.4609375 16.578125 -12.375 15.25 C-6.67993238 11.27153077 -2.96871696 6.24262912 0 0 Z " fill="#000000" transform="translate(734,320)"/>
<path d="M0 0 C1.32 0 2.64 0 4 0 C4.33 3.63 4.66 7.26 5 11 C5.63808594 10.28972656 6.27617188 9.57945312 6.93359375 8.84765625 C7.75988281 7.92855469 8.58617187 7.00945312 9.4375 6.0625 C10.26121094 5.14597656 11.08492187 4.22945313 11.93359375 3.28515625 C14.89887577 0.00596914 14.89887577 0.00596914 17.25 -0.1328125 C18.1575 -0.13023437 19.065 -0.12765625 20 -0.125 C21.36125 -0.12886719 21.36125 -0.12886719 22.75 -0.1328125 C25 0 25 0 26 1 C25.90968426 3.35694954 25.75311872 5.71153582 25.5625 8.0625 C25.46066406 9.35285156 25.35882812 10.64320313 25.25390625 11.97265625 C25.17011719 12.97167969 25.08632813 13.97070312 25 15 C22.61328125 15.15625 22.61328125 15.15625 20 15 C18.1875 12.5 18.1875 12.5 17 10 C11.89096745 12.09005877 9.47938117 14.04123766 7 19 C5.04604839 26.60819411 4.66207825 34.18026925 4.6875 42 C4.67138672 43.02222656 4.65527344 44.04445313 4.63867188 45.09765625 C4.63802734 46.07605469 4.63738281 47.05445313 4.63671875 48.0625 C4.63373779 48.94035156 4.63075684 49.81820312 4.62768555 50.72265625 C5.08078394 53.49413288 5.78207989 54.32565926 8 56 C11.10007201 57.20049407 11.10007201 57.20049407 14 58 C14 59.32 14 60.64 14 62 C3.77 62 -6.46 62 -17 62 C-17 60.68 -17 59.36 -17 58 C-16.43410156 57.82984375 -15.86820313 57.6596875 -15.28515625 57.484375 C-14.55167969 57.24203125 -13.81820312 56.9996875 -13.0625 56.75 C-11.96615234 56.40195312 -11.96615234 56.40195312 -10.84765625 56.046875 C-8.8363453 55.17874956 -8.8363453 55.17874956 -8.39161682 53.19244385 C-8.00552209 51.0309151 -7.87953277 49.06764399 -7.88647461 46.87402344 C-7.88655014 46.07349548 -7.88662567 45.27296753 -7.88670349 44.44818115 C-7.89186478 43.59387512 -7.89702606 42.73956909 -7.90234375 41.859375 C-7.9037587 40.97719299 -7.90517365 40.09501099 -7.90663147 39.18609619 C-7.91221999 36.37402935 -7.92477039 33.5620427 -7.9375 30.75 C-7.94251648 28.84114698 -7.94707913 26.93229272 -7.95117188 25.0234375 C-7.96218566 20.34892753 -7.97944242 15.67447735 -8 11 C-10.97 11 -13.94 11 -17 11 C-17 9.68 -17 8.36 -17 7 C-15.85660156 6.57847656 -14.71320312 6.15695312 -13.53515625 5.72265625 C-12.04421741 5.16941479 -10.55333489 4.61602153 -9.0625 4.0625 C-8.30775391 3.78470703 -7.55300781 3.50691406 -6.77539062 3.22070312 C-3.11220861 2.08246549 -3.11220861 2.08246549 0 0 Z " fill="#000000" transform="translate(882,334)"/>
<path d="M0 0 C0.00879936 0.9859893 0.00879936 0.9859893 0.01777649 1.99189758 C0.08161303 8.82130098 0.16600729 15.65022887 0.26245117 22.47924805 C0.2957461 25.02931456 0.32376363 27.57945559 0.34643555 30.12963867 C0.379897 33.79117649 0.43220981 37.45202864 0.48828125 41.11328125 C0.49467117 42.2571077 0.5010611 43.40093414 0.50764465 44.579422 C0.53733589 46.17073189 0.53733589 46.17073189 0.56762695 47.79418945 C0.57873001 48.72906693 0.58983307 49.6639444 0.60127258 50.62715149 C1.07601182 53.45235049 1.72893075 54.30388394 4 56 C7.10007201 57.20049407 7.10007201 57.20049407 10 58 C10 59.32 10 60.64 10 62 C-0.23 62 -10.46 62 -21 62 C-21 60.68 -21 59.36 -21 58 C-18.36 57.01 -15.72 56.02 -13 55 C-11.42697053 41.17981252 -10.57991842 25.77355072 -13 12 C-14.96822886 10.03177114 -18.34808709 10.33751619 -21 10 C-21 8.68 -21 7.36 -21 6 C-19.41058594 5.47599609 -19.41058594 5.47599609 -17.7890625 4.94140625 C-16.40101541 4.48185012 -15.01299601 4.02221036 -13.625 3.5625 C-12.57699219 3.21735352 -12.57699219 3.21735352 -11.5078125 2.86523438 C-2.87058424 0 -2.87058424 0 0 0 Z " fill="#000000" transform="translate(933,334)"/>
<path d="M0 0 C1.9375 1.0625 1.9375 1.0625 3 3 C3.36528977 6.4093712 3.6140629 8.88023824 1.9375 11.9375 C-1.11976176 13.6140629 -3.5906288 13.36528977 -7 13 C-8.9375 11.9375 -8.9375 11.9375 -10 10 C-10.36528977 6.5906288 -10.6140629 4.11976176 -8.9375 1.0625 C-5.88023824 -0.6140629 -3.4093712 -0.36528977 0 0 Z " fill="#000000" transform="translate(930,304)"/>
</svg>
